<?xml version="1.0" encoding="utf-8"?>
<!-- Generator: Adobe Illustrator 21.0.2, SVG Export Plug-In . SVG Version: 6.00 Build 0)  -->
<svg version="1.1" xmlns="http://www.w3.org/2000/svg" xmlns:xlink="http://www.w3.org/1999/xlink" x="0px" y="0px" width="24px"
	 height="24px" viewBox="0 0 24 24" enable-background="new 0 0 24 24" xml:space="preserve">
<g id="Black">
	<g>
		<polygon fill="none" stroke="#FCBB04" stroke-linecap="round" stroke-linejoin="round" stroke-miterlimit="10" points="16.5,14.5 
			12,17.5 7.5,14.5 7.5,10.5 12,7.5 16.5,10.5 		"/>
		<polygon fill="none" stroke="#FCBB04" stroke-linecap="round" stroke-linejoin="round" stroke-miterlimit="10" points="
			19.5,10.799 22,8.127 20.456,5.554 16.878,6.514 14.557,5.199 13.5,1.5 10.5,1.5 9.443,5.199 7.122,6.514 3.543,5.554 2,8.127 
			4.5,10.799 4.5,14.201 2,16.873 3.543,19.446 7.122,18.486 9.443,19.801 10.5,23.5 13.5,23.5 14.557,19.801 16.878,18.486 
			20.456,19.446 22,16.873 19.5,14.201 		"/>
		
			<rect x="10.939" y="11.439" transform="matrix(0.7071 -0.7071 0.7071 0.7071 -5.3241 12.1464)" fill="none" stroke="#FCBB04" stroke-linecap="round" stroke-linejoin="round" stroke-miterlimit="10" width="2.121" height="2.121"/>
	</g>
</g>
<g id="Frames-24px">
	<rect fill="none" width="24" height="24"/>
</g>
</svg>
