<?xml version="1.0" encoding="utf-8"?>
<!-- Generator: Adobe Illustrator 19.2.1, SVG Export Plug-In . SVG Version: 6.00 Build 0)  -->
<svg version="1.1" xmlns="http://www.w3.org/2000/svg" xmlns:xlink="http://www.w3.org/1999/xlink" x="0px" y="0px" width="24px"
	 height="24px" viewBox="0 0 24 24" enable-background="new 0 0 24 24" xml:space="preserve">
<g id="Filled_Icons">
	<path d="M21.854,6.147l-6-6C15.76,0.053,15.632,0,15.5,0h-13C2.224,0,2,0.224,2,0.5v23C2,23.776,2.224,24,2.5,24h19
		c0.276,0,0.5-0.224,0.5-0.5v-17C22,6.367,21.947,6.24,21.854,6.147z M8.929,18.242c0.142,0.237,0.065,0.545-0.171,0.686
		c-0.236,0.142-0.543,0.065-0.686-0.171L7,16.972l-1.071,1.786c-0.143,0.236-0.45,0.312-0.686,0.171
		c-0.237-0.142-0.313-0.449-0.171-0.686L6.417,16l-1.346-2.242c-0.142-0.237-0.065-0.544,0.171-0.687
		c0.238-0.143,0.544-0.065,0.686,0.171L7,15.028l1.071-1.786c0.142-0.236,0.45-0.313,0.686-0.171
		c0.237,0.143,0.313,0.449,0.171,0.687L7.583,16L8.929,18.242z M14,19h-2.5c-0.276,0-0.5-0.224-0.5-0.5v-5
		c0-0.276,0.224-0.5,0.5-0.5s0.5,0.224,0.5,0.5V18h2c0.276,0,0.5,0.224,0.5,0.5S14.276,19,14,19z M17.5,19
		c-0.919,0-1.683-0.752-1.739-1.712c-0.017-0.276,0.194-0.513,0.469-0.528c0.292-0.018,0.513,0.193,0.529,0.469
		C16.785,17.661,17.11,18,17.5,18c0.408,0,0.74-0.37,0.74-0.826c0-0.59-0.354-0.547-0.879-0.693
		c-1.089-0.203-1.603-0.756-1.603-1.655C15.758,13.818,16.54,13,17.5,13c0.917,0,1.681,0.752,1.737,1.711
		c0.017,0.275-0.194,0.512-0.469,0.528c-0.284,0.017-0.513-0.193-0.529-0.47C18.213,14.338,17.889,14,17.5,14
		c-0.409,0-0.742,0.37-0.742,0.825c0,0.446,0.23,0.568,0.713,0.657c1.055,0.2,1.77,0.598,1.77,1.691C19.24,18.182,18.459,19,17.5,19
		z M15,7V1l6,6H15z"/>
</g>
<g id="Invisible_Shape">
	<rect fill="none" width="24" height="24"/>
</g>
</svg>
