<?xml version="1.0" encoding="utf-8"?>
<!-- Generator: Adobe Illustrator 21.0.2, SVG Export Plug-In . SVG Version: 6.00 Build 0)  -->
<svg version="1.1" xmlns="http://www.w3.org/2000/svg" xmlns:xlink="http://www.w3.org/1999/xlink" x="0px" y="0px" width="24px"
	 height="24px" viewBox="0 0 24 24" enable-background="new 0 0 24 24" xml:space="preserve">
<g id="Black">
	<g>
		<g>
			<g>
				<polygon fill="none" stroke="#FFFFFF" stroke-linecap="round" stroke-linejoin="round" stroke-miterlimit="10" points="
					23.5,20.75 19.5,23 15.5,20.75 15.5,16.25 19.5,14 23.5,16.25 				"/>
				<polyline fill="none" stroke="#FFFFFF" stroke-linecap="round" stroke-linejoin="round" stroke-miterlimit="10" points="
					17.5,18.5 19,20 21.5,17 				"/>
			</g>
		</g>
		<g>
			<polyline fill="none" stroke="#FFFFFF" stroke-linecap="round" stroke-linejoin="round" stroke-miterlimit="10" points="
				16.5,13.5 16.5,10.5 12.5,9 10.5,9.75 			"/>
			<polyline fill="none" stroke="#FFFFFF" stroke-linecap="round" stroke-linejoin="round" stroke-miterlimit="10" points="
				10.5,15.5 10.5,21.5 13.5,21.5 			"/>
			
				<line fill="none" stroke="#FFFFFF" stroke-linecap="round" stroke-linejoin="round" stroke-miterlimit="10" x1="12.5" y1="11.5" x2="12.5" y2="13.5"/>
			<polygon fill="none" stroke="#FFFFFF" stroke-linecap="round" stroke-linejoin="round" stroke-miterlimit="10" points="15.5,6.5 
				12.5,8 9.5,6.5 9.5,2.5 12.5,1 15.5,2.5 			"/>
			<polyline fill="none" stroke="#FFFFFF" stroke-linecap="round" stroke-linejoin="round" stroke-miterlimit="10" points="
				15.5,3.5 11.5,3.5 9.5,2.5 			"/>
			<g>
				<polygon fill="none" stroke="#FFFFFF" stroke-linecap="round" stroke-linejoin="round" stroke-miterlimit="10" points="
					6.5,21.5 6.5,15.5 8.5,15.5 8.5,10.5 4.5,9 0.5,10.5 0.5,15.5 2.5,15.5 2.5,21.5 				"/>
				
					<line fill="none" stroke="#FFFFFF" stroke-linecap="round" stroke-linejoin="round" stroke-miterlimit="10" x1="4.5" y1="11.5" x2="4.5" y2="14.5"/>
				<polygon fill="none" stroke="#FFFFFF" stroke-linecap="round" stroke-linejoin="round" stroke-miterlimit="10" points="7.5,6.5 
					4.5,8 1.5,6.5 1.5,2.5 4.5,1 7.5,2.5 				"/>
				<polyline fill="none" stroke="#FFFFFF" stroke-linecap="round" stroke-linejoin="round" stroke-miterlimit="10" points="
					7.5,3.5 3.5,3.5 1.5,2.5 				"/>
			</g>
		</g>
	</g>
</g>
<g id="Frames-24px">
	<rect fill="none" width="24" height="24"/>
</g>
</svg>
