<?xml version="1.0" encoding="utf-8"?>
<!-- Generator: Adobe Illustrator 21.0.2, SVG Export Plug-In . SVG Version: 6.00 Build 0)  -->
<svg version="1.1" xmlns="http://www.w3.org/2000/svg" xmlns:xlink="http://www.w3.org/1999/xlink" x="0px" y="0px" width="24px"
	 height="24px" viewBox="0 0 24 24" enable-background="new 0 0 24 24" xml:space="preserve">
<g id="Black">
	<g>
		<g>
			<polygon fill="none" stroke="#FFFFFF" stroke-linecap="round" stroke-linejoin="round" stroke-miterlimit="10" points="15.5,5.5 
				15.5,3.5 17.691,2.947 18.515,1.5 19.5,4.5 18,6.5 16.5,6.5 			"/>
			<polygon fill="none" stroke="#FFFFFF" stroke-linejoin="round" stroke-miterlimit="10" points="15.5,5.5 16.5,6.5 16.345,7.5 
				7.547,15.5 5.547,15.5 14.5,5.655 			"/>
		</g>
		<polyline fill="none" stroke="#FFFFFF" stroke-linecap="round" stroke-linejoin="round" stroke-miterlimit="10" points="9.5,8.5 
			6,8.5 1.5,16 3.217,18.5 7.172,18.5 4.887,21.719 6,23.5 19,23.5 23.5,16 19,8.5 17.609,8.5 		"/>
		
			<line fill="none" stroke="#FFFFFF" stroke-linecap="round" stroke-linejoin="round" stroke-miterlimit="10" x1="4.609" y1="15.5" x2="10.5" y2="15.5"/>
		
			<rect x="16.44" y="12.439" transform="matrix(0.7069 -0.7073 0.7073 0.7069 -4.4196 16.3345)" fill="none" stroke="#FFFFFF" stroke-linecap="round" stroke-linejoin="round" stroke-miterlimit="10" width="2.121" height="2.121"/>
		
			<rect x="15.94" y="17.439" transform="matrix(0.7069 -0.7073 0.7073 0.7069 -8.1026 17.4462)" fill="none" stroke="#FFFFFF" stroke-linecap="round" stroke-linejoin="round" stroke-miterlimit="10" width="2.121" height="2.121"/>
		
			<rect x="11.44" y="18.939" transform="matrix(0.7069 -0.7073 0.7073 0.7069 -10.4824 14.703)" fill="none" stroke="#FFFFFF" stroke-linecap="round" stroke-linejoin="round" stroke-miterlimit="10" width="2.121" height="2.121"/>
	</g>
</g>
<g id="Frames-24px">
	<rect fill="none" width="24" height="24"/>
</g>
</svg>
