<?xml version="1.0" encoding="UTF-8" standalone="no"?>
<!DOCTYPE svg PUBLIC "-//W3C//DTD SVG 1.1//EN" "http://www.w3.org/Graphics/SVG/1.1/DTD/svg11.dtd">
<svg width="100%" height="100%" viewBox="0 0 1280 800" version="1.1" xmlns="http://www.w3.org/2000/svg" xmlns:xlink="http://www.w3.org/1999/xlink" xml:space="preserve" xmlns:serif="http://www.serif.com/" style="fill-rule:evenodd;clip-rule:evenodd;stroke-linejoin:round;stroke-miterlimit:2;">
    <g transform="matrix(1.17655,0,0,0.537069,49.9974,-6.79038)">
        <path d="M477.985,70.561L76.144,70.561L76.144,711.006L121.234,647.499L195.417,709.711L358.898,634.107L399.308,743.065L477.985,711.006L477.985,595.809L451.288,518.314L459.097,452.749L477.985,340.361L440.074,195.604L477.985,70.561Z" style="fill:rgb(128,128,128);"/>
    </g>
    <g transform="matrix(1.17655,0,0,-0.537069,49.9974,805.125)">
        <path d="M477.985,70.561L76.144,70.561L76.144,743.065L118.014,807.387L193.59,743.065L356.706,818.796L402.459,711.241L477.985,743.065L477.985,595.809L451.288,518.314L459.097,452.749L477.985,340.361L440.074,195.604L477.985,70.561Z"/>
    </g>
    <g transform="matrix(-1.17655,0,0,0.537069,1229.27,-4.99917)">
        <path d="M484.89,70.326L76.144,70.561L76.144,711.006L126.886,742.83L186.176,633.749L310.12,676.81L351.556,742.83L393.705,676.81L482.204,708.232L488.947,588.736L515.557,522.559L502.301,459.895L489.861,334.309L524.333,196.625L484.89,70.326Z" style="fill:rgb(252,187,4);"/>
    </g>
    <g transform="matrix(-0.420443,-1.09886,0.501606,-0.191923,811.97,1309.32)">
        <path d="M484.89,70.326L76.144,70.561L75.524,758.542L123.323,726.918L185.087,837.356L309.852,792.938L350.638,726.918L393.161,792.938L481.172,762.187L488.947,588.736L515.557,522.559L502.301,459.895L489.861,334.309L524.333,196.625L484.89,70.326Z" style="fill:rgb(229,229,229);"/>
    </g>
    <g id="Hoodie" transform="matrix(2.30949,-1.0038,1.0038,2.30949,-115.457,582.212)">
        <g transform="matrix(1,0,0,1,-128,-93.5)">
            <clipPath id="_clip1">
                <rect x="0" y="0" width="256" height="187"/>
            </clipPath>
            <g clip-path="url(#_clip1)">
                <g id="Body-Hoodie" serif:id="Body/Hoodie">
                    <path id="Skin" d="M190.781,92.211L222.679,115.635C231.331,117.97 238.559,120.874 244.364,124.349C245.735,125.598 247.392,128.128 241.705,127.691C236.019,127.254 230.018,127.049 229.233,128.989C228.449,130.929 231.89,133.248 230.304,135.865C229.246,137.61 224.251,133.235 215.317,122.741L183.73,109.642L190.781,92.211ZM68.308,93.02L89.205,93.102C76.302,134.756 69.336,156.857 68.308,159.406C65.994,165.14 70.891,173.874 72.985,178.567C66.165,181.619 66.891,170.317 58.288,174.319C50.435,177.973 44.462,184.592 35.389,178.994C34.274,178.306 33.051,175.715 36.005,173.69C43.362,168.645 53.965,159.815 55.398,156.908C57.352,152.945 61.655,131.649 68.308,93.02Z" style="fill:rgb(255,183,117);"/>
                    <g id="Coat-Back" transform="matrix(0.996195,0.0871557,-0.0871557,0.996195,6.26527,-14.9086)">
                        <path d="M122.732,9.58L131.217,7.349C165.594,32.163 183.362,84.056 224.997,108.727L216.59,121.241C147.889,118.772 125.383,55.547 122.732,9.58Z" style="fill:rgb(128,128,128);"/>
                    </g>
                    <path id="Shirt" d="M90,114L166.511,114C170.008,114 169.349,108.952 168.843,106.404C163.011,77.004 140.241,45.312 140.241,3.461L118.172,0C99.917,29.358 93.605,65.505 90,114Z" style="fill:rgb(221,227,233);"/>
                </g>
            </g>
        </g>
    </g>
    <g transform="matrix(1,0,0,1,-14.0696,-9.12874)">
        <ellipse cx="183.447" cy="545.839" rx="29.793" ry="33.704"/>
    </g>
    <g id="Jacket" transform="matrix(-2.11176,0.340508,0.340508,2.11176,1335.04,158.965)">
        <g transform="matrix(1,0,0,1,-128,-93.5)">
            <clipPath id="_clip2">
                <rect x="0" y="0" width="256" height="187"/>
            </clipPath>
            <g clip-path="url(#_clip2)">
                <g id="Body-Jacket" serif:id="Body/Jacket">
                    <path id="Skin1" serif:id="Skin" d="M194.044,89.123L222.372,116.758C230.615,120.273 237.368,124.156 242.633,128.404C243.817,129.832 245.105,132.568 239.535,131.344C233.965,130.119 228.051,129.082 227.004,130.894C225.957,132.705 229.042,135.481 227.107,137.852C225.817,139.432 221.479,134.405 214.093,122.77L184.636,105.402L194.044,89.123ZM68.308,93.02L89.205,93.102C76.302,134.756 69.336,156.857 68.308,159.406C65.994,165.14 70.891,173.874 72.985,178.567C66.165,181.619 66.891,170.317 58.288,174.319C50.435,177.973 44.462,184.592 35.389,178.994C34.274,178.306 33.051,175.715 36.005,173.69C43.362,168.645 53.965,159.815 55.398,156.908C57.352,152.945 61.655,131.649 68.308,93.02Z" style="fill:rgb(220,176,135);"/>
                    <g id="Coat-Back1" serif:id="Coat-Back" transform="matrix(0.996195,0.0871557,-0.0871557,0.996195,6.94494,-14.4995)">
                        <path d="M122.019,9.232L130.504,7.001C148.576,42.752 177.415,74.15 217.019,101.195L192.062,137.565C151.339,97.686 124.671,55.199 122.019,9.232Z"/>
                    </g>
                    <path id="Shirt1" serif:id="Shirt" d="M90,114L167,114C149.161,70.625 140.241,33.779 140.241,3.461L117.014,0C98.76,29.358 93.605,65.505 90,114Z"/>
                    <path id="Coat-Front" d="M116.522,0.016C116.525,0.011 116.529,0.005 116.532,0L118.048,0C119.862,0.062 122.625,0.175 126.338,0.338L131.95,16.377C132.544,35.932 136.011,75.342 142.351,134.606L91.876,134.606C92.008,138.699 92.227,142.83 92.531,147L55,147C60.614,83.664 81.115,34.664 116.504,0L116.522,0.016Z" style="fill:rgb(47,54,118);"/>
                </g>
            </g>
        </g>
    </g>
    <g id="Turtle-Neck" serif:id="Turtle Neck" transform="matrix(2.3992,-0.978692,1.01301,2.48334,-149.657,161.818)">
        <g transform="matrix(1,0,0,1,-128,-93.5)">
            <clipPath id="_clip3">
                <rect x="0" y="0" width="256" height="187"/>
            </clipPath>
            <g clip-path="url(#_clip3)">
                <g id="Body-Turtle-Neck" serif:id="Body/Turtle-Neck">
                    <path id="Skin2" serif:id="Skin" d="M199.493,92.46L227.821,120.095C236.063,123.611 242.817,127.493 248.081,131.742C249.265,133.17 250.554,135.906 244.984,134.682C239.414,133.457 233.5,132.42 232.453,134.231C231.406,136.043 234.491,138.819 232.556,141.189C231.266,142.77 226.928,137.743 219.542,126.108L190.084,108.74L199.493,92.46ZM60.97,67.45L82.867,67.532C66.189,121.566 57.336,149.857 56.308,152.406C53.994,158.14 58.891,166.874 60.985,171.567C54.165,174.619 54.891,163.317 46.288,167.319C38.435,170.973 32.462,177.592 23.389,171.994C22.274,171.306 21.051,168.715 24.005,166.69C31.362,161.645 41.965,152.815 43.398,149.908C45.352,145.945 51.209,118.459 60.97,67.45Z" style="fill:rgb(178,139,103);"/>
                    <g id="Clothes-Back" transform="matrix(0.996195,0.0871557,-0.0871557,0.996195,6.24052,-15.045)">
                        <path d="M122.768,9.714L131.253,7.483C149.02,54.264 221.603,80.862 227.452,98.419C229.597,104.858 225.155,108.596 227.775,110.385L217.295,119.561C215.206,117.515 211.513,121.916 202.816,119.824C194.118,117.733 127.738,66.513 122.768,9.714Z" style="fill:rgb(210,54,10);"/>
                    </g>
                    <path id="Clothes-Front" d="M142.241,11.734C141.244,75.483 178.096,91.745 169.887,117.318C163.109,138.437 98.227,161.139 87,140.438C82.455,132.058 80.393,121.924 80.159,110.906C77.29,119.371 75.021,126.658 73.351,132.767C70.471,143.307 59.306,144.983 59.306,149.043L44.597,144.983C45.594,139.467 38.66,136.781 40.519,124.457C48.85,69.24 71.233,29.214 107.669,4.381L108.046,-1.01C108.2,-3.214 110.112,-4.875 112.316,-4.721L139.25,-2.838C141.454,-2.683 143.115,-0.772 142.961,1.432L142.241,11.734Z" style="fill:rgb(255,65,51);"/>
                </g>
            </g>
        </g>
    </g>
    <g transform="matrix(0.181766,0,0,0.406298,103.643,114.061)">
        <ellipse cx="241.665" cy="146.042" rx="43.43" ry="43.806" style="fill:rgb(128,128,128);"/>
    </g>
</svg>
