<?xml version="1.0" encoding="utf-8"?>
<!-- Generator: Adobe Illustrator 21.0.2, SVG Export Plug-In . SVG Version: 6.00 Build 0)  -->
<svg version="1.1" xmlns="http://www.w3.org/2000/svg" xmlns:xlink="http://www.w3.org/1999/xlink" x="0px" y="0px" width="24px"
	 height="24px" viewBox="0 0 24 24" enable-background="new 0 0 24 24" xml:space="preserve">
<g id="Black">
	<g>
		<polygon fill="none" stroke="#FCBB04" stroke-linecap="round" stroke-linejoin="round" stroke-miterlimit="10" points="15.5,23.5 
			15.5,21.5 12.5,20.5 9.5,21.5 9.5,23.5 		"/>
		<polygon fill="none" stroke="#FCBB04" stroke-linecap="round" stroke-linejoin="round" stroke-miterlimit="10" points="23.5,23.5 
			23.5,21.5 20.5,20.5 17.5,21.5 17.5,23.5 		"/>
		<polygon fill="none" stroke="#FCBB04" stroke-linecap="round" stroke-linejoin="round" stroke-miterlimit="10" points="14.5,18.5 
			12.5,19.5 10.5,18.5 10.5,16 12.5,15 14.5,16 		"/>
		<polygon fill="none" stroke="#FCBB04" stroke-linecap="round" stroke-linejoin="round" stroke-miterlimit="10" points="22.5,18.5 
			20.5,19.5 18.5,18.5 18.5,16 20.5,15 22.5,16 		"/>
		<polyline fill="none" stroke="#FCBB04" stroke-linecap="round" stroke-linejoin="round" stroke-miterlimit="10" points="8.5,5.5 
			8.5,0.5 23.5,0.5 23.5,11.5 11.5,11.5 		"/>
	</g>
	<g>
		<polygon fill="none" stroke="#FCBB04" stroke-linecap="round" stroke-linejoin="round" stroke-miterlimit="10" points="1.5,5.5 
			3.5,6.5 5.5,5.5 5.5,2.5 3.5,1.5 1.5,2.5 		"/>
		
			<line fill="none" stroke="#FCBB04" stroke-linecap="round" stroke-linejoin="round" stroke-miterlimit="10" x1="5.5" y1="3" x2="1.5" y2="4"/>
		
			<line fill="none" stroke="#FCBB04" stroke-linecap="round" stroke-linejoin="round" stroke-miterlimit="10" x1="3.5" y1="9.5" x2="3.5" y2="12.5"/>
		
			<line fill="none" stroke="#FCBB04" stroke-linecap="round" stroke-linejoin="round" stroke-miterlimit="10" x1="6.5" y1="15.5" x2="0.5" y2="15.5"/>
		<polyline fill="none" stroke="#FCBB04" stroke-linecap="round" stroke-linejoin="round" stroke-miterlimit="10" points="0.5,8.25 
			3.5,7.5 12,8.5 6.5,11.5 6.5,23.5 3.5,17.5 0.5,23.5 0.5,11.5 		"/>
	</g>
</g>
<g id="Frames-24px">
	<rect fill="none" width="24" height="24"/>
</g>
</svg>
