<?xml version="1.0" encoding="UTF-8" standalone="no"?>
<!DOCTYPE svg PUBLIC "-//W3C//DTD SVG 1.1//EN" "http://www.w3.org/Graphics/SVG/1.1/DTD/svg11.dtd">
<svg width="100%" height="100%" viewBox="0 0 1280 800" version="1.1" xmlns="http://www.w3.org/2000/svg" xmlns:xlink="http://www.w3.org/1999/xlink" xml:space="preserve" xmlns:serif="http://www.serif.com/" style="fill-rule:evenodd;clip-rule:evenodd;stroke-linecap:round;stroke-linejoin:round;stroke-miterlimit:1.5;">
    <g transform="matrix(0.376192,-0.611841,0.567245,0.348772,17.8674,755.436)">
        <path d="M457.087,89.977C457.087,72.449 443.893,58.218 427.643,58.218L302.096,58.218C285.846,58.218 272.652,72.449 272.652,89.977C272.652,107.505 285.846,121.736 302.096,121.736L427.643,121.736C443.893,121.736 457.087,107.505 457.087,89.977Z" style="fill:rgb(252,187,4);stroke:black;stroke-width:5.78px;"/>
    </g>
    <g transform="matrix(-0.340472,-1.04495,1.01021,-0.32915,823.884,820.963)">
        <path d="M457.087,89.977C457.087,72.449 443.329,58.218 426.384,58.218L303.355,58.218C286.41,58.218 272.652,72.449 272.652,89.977C272.652,107.505 286.41,121.736 303.355,121.736L426.384,121.736C443.329,121.736 457.087,107.505 457.087,89.977Z" style="fill:rgb(252,187,4);stroke:black;stroke-width:3.7px;"/>
    </g>
    <g transform="matrix(0.0149587,-0.351609,0.327351,0.0139267,294.954,560.796)">
        <path d="M457.087,89.977C457.087,72.449 443.838,58.218 427.519,58.218L302.22,58.218C285.901,58.218 272.652,72.449 272.652,89.977C272.652,107.505 285.901,121.736 302.22,121.736L427.519,121.736C443.838,121.736 457.087,107.505 457.087,89.977Z" style="fill:rgb(252,187,4);stroke:black;stroke-width:5.88px;"/>
    </g>
    <g transform="matrix(-0.395174,-0.471794,0.478178,-0.400521,1230.35,614.32)">
        <path d="M457.087,89.977C457.087,72.449 442.663,58.218 424.898,58.218L304.841,58.218C287.075,58.218 272.652,72.449 272.652,89.977C272.652,107.505 287.075,121.736 304.841,121.736L424.898,121.736C442.663,121.736 457.087,107.505 457.087,89.977Z" style="fill:rgb(252,187,4);stroke:black;stroke-width:6.46px;"/>
    </g>
    <g transform="matrix(-0.432295,-0.40696,0.383491,-0.407365,568.896,783.739)">
        <path d="M457.087,89.977C457.087,72.449 443.677,58.218 427.159,58.218L302.58,58.218C286.062,58.218 272.652,72.449 272.652,89.977C272.652,107.505 286.062,121.736 302.58,121.736L427.159,121.736C443.677,121.736 457.087,107.505 457.087,89.977Z" style="fill:rgb(252,187,4);stroke:black;stroke-width:6.93px;"/>
    </g>
    <g id="Hoodie" transform="matrix(0.0809335,-3.07797,3.07797,0.0809335,63.1835,932.155)">
        <g transform="matrix(1,0,0,1,-128,-93.5)">
            <g id="Body-Hoodie" serif:id="Body/Hoodie">
                <path id="Skin" d="M190.781,92.211L222.679,115.635C231.331,117.97 238.559,120.874 244.364,124.349C245.735,125.598 247.392,128.128 241.705,127.691C236.019,127.254 230.018,127.049 229.233,128.989C228.449,130.929 231.89,133.248 230.304,135.865C229.246,137.61 224.251,133.235 215.317,122.741L183.73,109.642L190.781,92.211ZM68.308,93.02L89.205,93.102C76.302,134.756 69.336,156.857 68.308,159.406C65.994,165.14 70.891,173.874 72.985,178.567C66.165,181.619 66.891,170.317 58.288,174.319C50.435,177.973 44.462,184.592 35.389,178.994C34.274,178.306 33.051,175.715 36.005,173.69C43.362,168.645 53.965,159.815 55.398,156.908C57.352,152.945 61.655,131.649 68.308,93.02Z" style="fill:rgb(229,180,136);"/>
                <g id="Coat-Back" transform="matrix(0.996195,0.0871557,-0.0871557,0.996195,6.26527,-14.9086)">
                    <path d="M122.732,9.58L131.217,7.349C165.594,32.163 183.362,84.056 224.997,108.727L216.59,121.241C147.889,118.772 125.383,55.547 122.732,9.58Z"/>
                </g>
                <path id="Shirt" d="M90,114L166.511,114C170.008,114 169.349,108.952 168.843,106.404C163.011,77.004 140.241,45.312 140.241,3.461L118.172,0C99.917,29.358 93.605,65.505 90,114Z" style="fill:rgb(221,227,233);"/>
            </g>
        </g>
    </g>
    <g id="Jacket-2" serif:id="Jacket 2" transform="matrix(0.355924,-2.07842,2.07842,0.355924,314.598,889.022)">
        <g transform="matrix(1,0,0,1,-128,-93.5)">
            <clipPath id="_clip1">
                <rect x="0" y="0" width="256" height="187"/>
            </clipPath>
            <g clip-path="url(#_clip1)">
                <g id="Body-Jacket-2" serif:id="Body/Jacket-2">
                    <path id="Skin1" serif:id="Skin" d="M198,77.617L234.235,61.704C240.582,55.379 246.711,50.572 252.623,47.282C254.39,46.719 257.41,46.549 254.188,51.255C250.966,55.961 247.789,61.056 249.076,62.705C250.364,64.355 254.093,62.534 255.566,65.216C256.549,67.004 250.262,69.143 236.707,71.633L209.57,92.439L198,77.617ZM51.508,82L72,86.066C51.392,124.471 40.34,144.826 38.845,147.13C35.48,152.315 38.62,161.817 39.779,166.821C32.504,168.515 35.373,157.565 26.167,159.851C17.764,161.938 10.639,167.293 2.804,160.071C1.841,159.183 1.135,156.407 4.42,154.984C12.603,151.437 24.692,144.796 26.652,142.218C29.326,138.702 37.611,118.629 51.508,82Z" style="fill:rgb(178,139,103);"/>
                    <g id="Coat-Back1" serif:id="Coat-Back" transform="matrix(0.996195,0.0871557,-0.0871557,0.996195,5.74472,-15.2521)">
                        <path d="M123.28,9.877L131.765,7.646C152.12,24.205 163.602,67.262 176.613,71.956C188.913,76.394 205.209,69.632 224.503,60.739L231.796,73.835C215.41,95 178.299,114.917 161.843,106.84C135.534,93.927 125.047,40.501 123.28,9.877Z" style="fill:rgb(252,187,4);"/>
                    </g>
                    <path id="Shirt1" serif:id="Shirt" d="M90,114L166.511,114C170.008,114 169.349,108.952 168.843,106.404C163.011,77.004 140.241,45.312 140.241,3.461L118.172,0C99.917,29.358 93.605,65.505 90,114Z" style="fill:rgb(221,227,233);"/>
                </g>
            </g>
        </g>
    </g>
    <g id="Lab-Coat" serif:id="Lab Coat" transform="matrix(1.8082,-4.29192,-4.29192,-1.8082,777.315,991.034)">
        <g transform="matrix(1,0,0,1,-128,-93.5)">
            <clipPath id="_clip2">
                <rect x="0" y="0" width="256" height="187"/>
            </clipPath>
            <g clip-path="url(#_clip2)">
                <g id="Body-Lab-Coat" serif:id="Body/Lab-Coat">
                    <path id="Skin2" serif:id="Skin" d="M190.359,88.61L220.545,114.202C229.013,117.134 236.021,120.536 241.569,124.407C242.85,125.749 244.326,128.388 238.684,127.555C233.042,126.722 227.07,126.1 226.152,127.98C225.234,129.86 228.505,132.414 226.74,134.914C225.564,136.581 220.885,131.868 212.706,120.777L182.109,105.507L190.359,88.61ZM53.667,77.536L71.379,80.108C52.367,121.358 42.174,143.173 40.801,145.554C37.712,150.91 41.345,160.24 42.766,165.179C35.587,167.252 37.88,156.162 28.803,158.928C20.518,161.453 13.682,167.177 5.476,160.37C4.468,159.533 3.618,156.797 6.824,155.203C14.813,151.231 26.541,143.963 28.364,141.284C30.851,137.631 39.285,116.382 53.667,77.536Z" style="fill:rgb(155,116,80);"/>
                    <g id="Coat-Back2" serif:id="Coat-Back" transform="matrix(0.996195,0.0871557,-0.0871557,0.996195,5.98645,-14.5618)">
                        <path d="M122.979,9.211L133.596,4.638C151.668,40.39 176.923,74.301 216.528,101.346L208.768,117.912C174.616,101.621 142.571,89.449 127.583,61.832C122.553,52.563 123.646,20.761 122.979,9.211Z" style="fill:rgb(197,207,214);"/>
                    </g>
                    <path id="Shirt2" serif:id="Shirt" d="M90,110C121.438,113.333 146.184,113.333 164.236,110C166.473,109.587 166.826,105.842 165.788,103.301C149.636,63.724 138.56,29.192 138.56,1.703C135.597,3.197 130.41,3.421 123,2.374C103.086,30.703 93.933,63.206 90,110Z" style="fill:rgb(50,51,55);"/>
                    <path id="Coat-Front" d="M118.049,0L126.348,0C128.281,11.365 134.376,165.263 153.191,215.606L51.385,215.606C53.592,169.487 71.003,114.087 88.64,67.728C73.044,81.999 59.452,106.181 47.862,140.273L28.793,135.378C42.971,74.281 72.122,29.375 116.246,0.659C116.342,0.438 116.437,0.219 116.532,0L117.266,0C117.536,-0.173 117.807,-0.346 118.079,-0.519L118.049,0Z" style="fill:none;"/>
                </g>
            </g>
        </g>
    </g>
    <g id="Jacket" transform="matrix(-0.18047,-2.73445,-2.73445,0.18047,595.392,903.211)">
        <g transform="matrix(1,0,0,1,-128,-93.5)">
            <g id="Body-Jacket" serif:id="Body/Jacket">
                <path id="Skin3" serif:id="Skin" d="M194.044,89.123L222.372,116.758C230.615,120.273 237.368,124.156 242.633,128.404C243.817,129.832 245.105,132.568 239.535,131.344C233.965,130.119 228.051,129.082 227.004,130.894C225.957,132.705 229.042,135.481 227.107,137.852C225.817,139.432 221.479,134.405 214.093,122.77L184.636,105.402L194.044,89.123ZM68.308,93.02L89.205,93.102C76.302,134.756 69.336,156.857 68.308,159.406C65.994,165.14 70.891,173.874 72.985,178.567C66.165,181.619 66.891,170.317 58.288,174.319C50.435,177.973 44.462,184.592 35.389,178.994C34.274,178.306 33.051,175.715 36.005,173.69C43.362,168.645 53.965,159.815 55.398,156.908C57.352,152.945 61.655,131.649 68.308,93.02Z" style="fill:rgb(85,58,33);"/>
                <g id="Coat-Back3" serif:id="Coat-Back" transform="matrix(0.996195,0.0871557,-0.0871557,0.996195,6.94494,-14.4995)">
                    <path d="M122.019,9.232L130.504,7.001C148.576,42.752 177.415,74.15 217.019,101.195L192.062,137.565C151.339,97.686 124.671,55.199 122.019,9.232Z" style="fill:rgb(128,128,128);"/>
                </g>
                <path id="Shirt3" serif:id="Shirt" d="M90,114L167,114C149.161,70.625 140.241,33.779 140.241,3.461L117.014,0C98.76,29.358 93.605,65.505 90,114Z" style="fill:rgb(221,227,233);"/>
            </g>
        </g>
    </g>
    <g id="Trench-Coat" serif:id="Trench Coat" transform="matrix(-2.82061,-1.12215,1.12215,-2.82061,1434.63,642.072)">
        <g transform="matrix(1,0,0,1,-128,-93.5)">
            <clipPath id="_clip3">
                <rect x="0" y="0" width="256" height="187"/>
            </clipPath>
            <g clip-path="url(#_clip3)">
                <g id="Body-Trench-Coat" serif:id="Body/Trench-Coat">
                    <g id="Skin4" serif:id="Skin" transform="matrix(0.997564,-0.0697565,0.0697565,0.997564,-7.61698,8.89744)">
                        <path d="M197.693,90.244L227.88,115.836C236.347,118.768 243.355,122.17 248.903,126.041C250.184,127.383 251.66,130.022 246.018,129.19C240.376,128.357 234.404,127.734 233.486,129.614C232.568,131.495 235.839,134.048 234.074,136.548C232.898,138.215 228.22,133.503 220.04,122.411L189.443,107.141L197.693,90.244ZM54.375,70.442L71.721,74.852C48.501,113.888 36.084,134.518 34.47,136.742C30.837,141.747 33.475,151.406 34.372,156.466C27.016,157.777 30.455,146.987 21.139,148.789C12.636,150.434 5.238,155.412 -2.21,147.786C-3.126,146.848 -3.685,144.038 -0.33,142.787C8.03,139.672 20.454,133.67 22.547,131.196C25.402,127.823 36.011,107.572 54.375,70.442Z" style="fill:rgb(67,46,26);"/>
                    </g>
                    <path id="Back-Arm" d="M138.264,2.041C153.173,32.858 218.563,99.521 219.495,100.182L211.448,116.61C177.585,99.726 145.757,86.996 131.254,59.122C126.386,49.766 128.034,17.988 127.569,6.428L138.264,2.041Z" style="fill:rgb(210,54,10);"/>
                    <path id="Shirt4" serif:id="Shirt" d="M90,113.91C121.438,117.363 146.184,117.363 164.236,113.91C166.473,113.482 166.375,103.84 165.337,101.207C149.185,60.202 138.56,30.184 138.56,1.703C135.597,3.251 130.41,3.483 123,2.399C103.086,31.75 93.933,65.427 90,113.91Z" style="fill:rgb(25,24,71);"/>
                    <path id="Coat-Front1" serif:id="Coat-Front" d="M84.159,118.758C83.091,117.753 82.534,116.247 82.808,114.696L83.329,111.741C83.682,109.739 85.308,108.281 87.228,108.053C87.563,106.553 87.853,105.063 88.092,103.583C90.111,91.087 86.661,78.834 86.823,66.802C70.743,80.522 56.318,104.211 43.548,137.871L24.661,132.313C25.382,129.636 26.128,126.992 26.901,124.38C24.721,123.142 22.173,117.466 24.007,116.516C25.9,115.535 27.906,114.845 30.018,114.438C47.335,62.279 75.655,24.133 114.976,0L126.348,0C123,44.281 169.25,140.955 153.191,223.518C123.508,230.147 81.132,209.523 39.883,226C41.418,192.751 72.163,153.691 84.159,118.758L84.159,118.758Z" style="fill:rgb(137,197,204);"/>
                </g>
            </g>
        </g>
    </g>
    <g transform="matrix(1.69908,0,0,1.00081,-656.138,-26.1125)">
        <path d="M630.795,100.287C635.399,90.281 656.435,82.368 681.259,82.368C706.084,82.368 727.12,90.281 731.724,100.287C748.075,93.453 775.077,92.811 795.161,99.609C815.244,106.406 822.278,118.567 813.378,127.923C835.229,126.871 857.884,133.746 865.555,144.744C873.227,155.743 863.572,167.507 844.567,172.64C863.572,177.772 873.227,189.536 865.555,200.535C857.884,211.533 835.229,218.408 813.378,217.356C822.278,226.712 815.244,238.873 795.161,245.67C775.077,252.468 748.075,251.826 731.724,244.992C727.12,254.998 706.084,262.911 681.259,262.911C656.435,262.911 635.399,254.998 630.795,244.992C614.444,251.826 587.442,252.468 567.358,245.67C547.275,238.873 540.241,226.712 549.141,217.356C527.29,218.408 504.635,211.533 496.964,200.535C489.292,189.536 498.947,177.772 517.952,172.64C498.947,167.507 489.292,155.743 496.964,144.744C504.635,133.746 527.29,126.871 549.141,127.923C540.241,118.567 547.275,106.406 567.358,99.609C587.442,92.811 614.444,93.453 630.795,100.287Z" style="fill:rgb(193,193,193);fill-opacity:0.52;"/>
    </g>
    <g transform="matrix(1.69908,0,0,0.360166,-819.674,307.469)">
        <path d="M630.795,100.287C635.399,90.281 656.435,82.368 681.259,82.368C706.084,82.368 727.12,90.281 731.724,100.287C748.075,93.453 775.077,92.811 795.161,99.609C815.244,106.406 822.278,118.567 813.378,127.923C835.229,126.871 857.884,133.746 865.555,144.744C873.227,155.743 863.572,167.507 844.567,172.64C863.572,177.772 873.227,189.536 865.555,200.535C857.884,211.533 835.229,218.408 813.378,217.356C822.278,226.712 815.244,238.873 795.161,245.67C775.077,252.468 748.075,251.826 731.724,244.992C727.12,254.998 706.084,262.911 681.259,262.911C656.435,262.911 635.399,254.998 630.795,244.992C614.444,251.826 587.442,252.468 567.358,245.67C547.275,238.873 540.241,226.712 549.141,217.356C527.29,218.408 504.635,211.533 496.964,200.535C489.292,189.536 498.947,177.772 517.952,172.64C498.947,167.507 489.292,155.743 496.964,144.744C504.635,133.746 527.29,126.871 549.141,127.923C540.241,118.567 547.275,106.406 567.358,99.609C587.442,92.811 614.444,93.453 630.795,100.287Z" style="fill:rgb(193,193,193);fill-opacity:0.24;"/>
    </g>
    <g transform="matrix(0.806678,0,0,0.703948,506.683,182.193)">
        <path d="M631.497,93.691C641.153,87.22 660.141,82.368 681.259,82.368C702.378,82.368 721.366,87.22 731.022,93.691C746.655,90.679 768.259,91.38 786.025,96.699C803.791,102.017 814.134,110.881 814.747,118.756C831.394,120.16 848.755,126.19 857.528,135.139C866.301,144.089 864.715,154.15 856.092,160.93C868.466,166.303 876.073,175.749 873.067,185.486C870.062,195.224 857.051,203.289 841.928,206.821C846.102,214.458 841.539,224.319 827.709,231.755C813.879,239.19 793.574,242.697 776.753,241.859C771.401,249.335 756.117,256.482 735.854,259.254C715.59,262.026 694.438,259.863 681.259,254.921C668.081,259.863 646.929,262.026 626.665,259.254C606.402,256.482 591.118,249.335 585.766,241.859C568.945,242.697 548.64,239.19 534.81,231.755C520.98,224.319 516.417,214.458 520.591,206.821C505.468,203.289 492.457,195.224 489.452,185.486C486.446,175.749 494.053,166.303 506.427,160.93C497.804,154.15 496.218,144.089 504.991,135.139C513.764,126.19 531.125,120.16 547.771,118.756C548.385,110.881 558.728,102.017 576.494,96.699C594.26,91.38 615.864,90.679 631.497,93.691Z" style="fill:rgb(193,193,193);fill-opacity:0.52;"/>
    </g>
    <g transform="matrix(1,0,0,1,-53.0497,-26.3528)">
        <path d="M316.363,156.689C316.363,123.368 322.842,96.316 330.823,96.316C338.803,96.316 345.283,123.368 345.283,156.689C354.281,124.503 367.844,99.98 375.553,101.96C383.261,103.939 382.215,131.677 373.217,163.863C390.599,135.006 410.323,114.683 417.234,118.507C424.146,122.332 415.644,148.865 398.261,177.722C422.844,154.16 447.384,139.422 453.027,144.831C458.67,150.24 443.293,173.76 418.71,197.321C448.818,180.661 476.502,172.512 480.492,179.137C484.482,185.761 463.278,204.665 433.17,221.325C466.751,212.701 495.692,211.698 497.757,219.086C499.823,226.475 474.236,239.475 440.655,248.099C475.421,248.099 503.646,254.309 503.646,261.958C503.646,269.606 475.421,275.816 440.655,275.816C474.236,284.44 499.823,297.441 497.757,304.829C495.692,312.217 466.751,311.214 433.17,302.59C463.278,319.25 484.482,338.154 480.492,344.778C476.502,351.403 448.818,343.254 418.71,326.594C443.293,350.155 458.67,373.675 453.027,379.084C447.384,384.493 422.844,369.755 398.261,346.193C415.644,375.05 424.146,401.583 417.234,405.408C410.323,409.232 390.599,388.909 373.217,360.052C382.215,392.238 383.261,419.976 375.553,421.955C367.844,423.935 354.281,399.412 345.283,367.226C345.283,400.547 338.803,427.599 330.823,427.599C322.842,427.599 316.363,400.547 316.363,367.226C307.365,399.412 293.802,423.935 286.093,421.955C278.385,419.976 279.431,392.238 288.429,360.052C271.047,388.909 251.323,409.232 244.412,405.408C237.5,401.583 246.002,375.05 263.385,346.193C238.802,369.755 214.262,384.493 208.619,379.084C202.976,373.675 218.352,350.155 242.936,326.594C212.828,343.254 185.144,351.403 181.154,344.778C177.164,338.154 198.368,319.25 228.476,302.59C194.895,311.214 165.954,312.217 163.889,304.829C161.823,297.441 187.41,284.44 220.991,275.816C186.225,275.816 158,269.606 158,261.958C158,254.309 186.225,248.099 220.991,248.099C187.41,239.475 161.823,226.475 163.889,219.086C165.954,211.698 194.895,212.701 228.476,221.325C198.368,204.665 177.164,185.761 181.154,179.137C185.144,172.512 212.828,180.661 242.936,197.321C218.352,173.76 202.976,150.24 208.619,144.831C214.262,139.422 238.802,154.16 263.385,177.722C246.002,148.865 237.5,122.332 244.412,118.507C251.323,114.683 271.047,135.006 288.429,163.863C279.431,131.677 278.385,103.939 286.093,101.96C293.802,99.98 307.365,124.503 316.363,156.689Z" style="fill:rgb(252,187,4);stroke:black;stroke-width:1.8px;"/>
    </g>
</svg>
