<?xml version="1.0" encoding="utf-8"?>
<!-- Generator: Adobe Illustrator 21.0.2, SVG Export Plug-In . SVG Version: 6.00 Build 0)  -->
<svg version="1.1" xmlns="http://www.w3.org/2000/svg" xmlns:xlink="http://www.w3.org/1999/xlink" x="0px" y="0px" width="24px"
	 height="24px" viewBox="0 0 24 24" enable-background="new 0 0 24 24" xml:space="preserve">
<g id="Black">
	<g>
		<polygon fill="none" stroke="#6C6C6C" stroke-linecap="round" stroke-linejoin="round" stroke-miterlimit="10" points="12.5,9 
			9.5,10.5 6.5,9 6.5,5 9.5,3.5 12.5,5 		"/>
		<g>
			<polyline fill="none" stroke="#6C6C6C" stroke-linecap="round" stroke-linejoin="round" stroke-miterlimit="10" points="6.5,5 
				9,6.5 12.5,6.5 			"/>
		</g>
		<polyline fill="none" stroke="#6C6C6C" stroke-linecap="round" stroke-linejoin="round" stroke-miterlimit="10" points="
			14.5,14.5 14.5,13 9.5,11.5 4.5,13 4.5,14.5 		"/>
		<g>
			<g>
				<polygon fill="none" stroke="#6C6C6C" stroke-linecap="round" stroke-linejoin="round" stroke-miterlimit="10" points="
					13.707,18.501 5.295,18.501 0.501,13.707 0.501,5.295 5.294,0.5 13.707,0.5 18.5,5.295 18.5,13.707 				"/>
				<polyline fill="none" stroke="#6C6C6C" stroke-linecap="round" stroke-linejoin="round" stroke-miterlimit="10" points="
					17.603,14.603 23.5,20.5 23.5,23.5 20.5,23.5 14.603,17.603 				"/>

					<line fill="none" stroke="#6C6C6C" stroke-linecap="round" stroke-linejoin="round" stroke-miterlimit="10" x1="16.5" y1="19.5" x2="19.5" y2="16.5"/>
			</g>
		</g>
	</g>
</g>
<g id="Frames-24px">
	<rect fill="none" width="24" height="24"/>
</g>
</svg>
