<?xml version="1.0" encoding="utf-8"?>
<!-- Generator: Adobe Illustrator 21.0.2, SVG Export Plug-In . SVG Version: 6.00 Build 0)  -->
<svg version="1.1" xmlns="http://www.w3.org/2000/svg" xmlns:xlink="http://www.w3.org/1999/xlink" x="0px" y="0px" width="24px"
	 height="24px" viewBox="0 0 24 24" enable-background="new 0 0 24 24" xml:space="preserve">
<g id="Black">
	<g>
		<polyline fill="none" stroke="#E5E5E5" stroke-linecap="round" stroke-linejoin="round" stroke-miterlimit="10" points="
			20.336,5.472 11.828,4 14,0.5 23.5,0.5 13,17 		"/>
		<polyline fill="none" stroke="#E5E5E5" stroke-linejoin="round" stroke-miterlimit="10" points="7.362,2.5 1,2.5 5.5,5.5 
			6.138,4.5 		"/>
		<polygon fill="none" stroke="#E5E5E5" stroke-linejoin="round" stroke-miterlimit="10" points="14.499,12 12.499,13 10.499,12 
			10.499,9.5 12.499,8.5 14.499,9.5 		"/>
		<polygon fill="none" stroke="#E5E5E5" stroke-linejoin="round" stroke-miterlimit="10" points="15.999,18.5 15.499,14.5 
			12.499,13.5 9.499,14.5 8.999,18.5 10.499,18.5 9.499,23.5 12.499,19.5 15.499,23.5 14.499,18.5 		"/>
		<polygon fill="none" stroke="#E5E5E5" stroke-linejoin="round" stroke-miterlimit="10" points="6.5,11.5 4.5,12.5 2.5,11.5 2.5,9 
			4.5,8 6.5,9 		"/>
		<polyline fill="none" stroke="#E5E5E5" stroke-linecap="round" stroke-linejoin="round" stroke-miterlimit="10" points="6.9,14.3 
			4.5,13.5 1.5,14.5 1,18.5 2.5,18.5 1.5,23.5 4.5,19.5 7.5,23.5 6.5,18.5 		"/>
		<polyline fill="none" stroke="#E5E5E5" stroke-linejoin="round" stroke-miterlimit="10" points="13.379,1.5 8,1.5 6.138,4.5 
			10.845,5.48 11.827,4.001 		"/>
	</g>
</g>
<g id="Frames-24px">
	<rect fill="none" width="24" height="24"/>
</g>
</svg>
