<?xml version="1.0" encoding="utf-8"?>
<!-- Generator: Adobe Illustrator 21.0.2, SVG Export Plug-In . SVG Version: 6.00 Build 0)  -->
<svg version="1.1" xmlns="http://www.w3.org/2000/svg" xmlns:xlink="http://www.w3.org/1999/xlink" x="0px" y="0px" width="24px"
	 height="24px" viewBox="0 0 24 24" enable-background="new 0 0 24 24" xml:space="preserve">
<g id="Black">
	<g>
		<polyline fill="none" stroke="#FCBB04" stroke-linecap="round" stroke-linejoin="round" stroke-miterlimit="10" points="4.5,5.5 
			8.5,1.5 14.5,1.5 18.5,5.5 		"/>
		<polyline fill="none" stroke="#FCBB04" stroke-linecap="round" stroke-linejoin="round" stroke-miterlimit="10" points="
			6.74,7.26 9.5,4.5 13.5,4.5 16.26,7.26 		"/>
		<polyline fill="none" stroke="#FCBB04" stroke-linecap="round" stroke-linejoin="round" stroke-miterlimit="10" points="
			8.98,9.02 10.5,7.5 12.5,7.5 14.02,9.02 		"/>
		<g>
			<polygon fill="none" stroke="#FCBB04" stroke-linecap="round" stroke-linejoin="round" stroke-miterlimit="10" points="5.5,18.5 
				3.5,19.5 1.5,18.5 1.5,16 3.5,15 5.5,16 			"/>
			<polygon fill="none" stroke="#FCBB04" stroke-linecap="round" stroke-linejoin="round" stroke-miterlimit="10" points="6.5,23.5 
				6.5,21.5 3.5,20.5 0.5,21.5 0.5,23.5 			"/>
			<polygon fill="none" stroke="#FCBB04" stroke-linecap="round" stroke-linejoin="round" stroke-miterlimit="10" points="
				14.5,23.5 14.5,21.5 11.5,20.5 8.5,21.5 8.5,23.5 			"/>
			<polygon fill="none" stroke="#FCBB04" stroke-linecap="round" stroke-linejoin="round" stroke-miterlimit="10" points="
				22.5,23.5 22.5,21.5 19.5,20.5 16.5,21.5 16.5,23.5 			"/>
			<polygon fill="none" stroke="#FCBB04" stroke-linecap="round" stroke-linejoin="round" stroke-miterlimit="10" points="
				13.5,18.5 11.5,19.5 9.5,18.5 9.5,16 11.5,15 13.5,16 			"/>
			<polygon fill="none" stroke="#FCBB04" stroke-linecap="round" stroke-linejoin="round" stroke-miterlimit="10" points="
				21.5,18.5 19.5,19.5 17.5,18.5 17.5,16 19.5,15 21.5,16 			"/>
		</g>
		<g>
			<path fill="#FCBB04" d="M11.499,10.001c-0.051,0-0.102,0.02-0.141,0.059l-0.799,0.799c-0.078,0.078-0.078,0.205,0,0.283
				l0.799,0.799C11.397,11.981,11.448,12,11.499,12c0.051,0,0.102-0.019,0.142-0.059l0.799-0.799c0.078-0.078,0.078-0.205,0-0.283
				l-0.799-0.799C11.602,10.021,11.55,10.001,11.499,10.001L11.499,10.001z"/>
		</g>
	</g>
</g>
<g id="Frames-24px">
	<rect fill="none" width="24" height="24"/>
</g>
</svg>
