<?xml version="1.0" encoding="UTF-8" standalone="no"?>
<!DOCTYPE svg PUBLIC "-//W3C//DTD SVG 1.1//EN" "http://www.w3.org/Graphics/SVG/1.1/DTD/svg11.dtd">
<svg width="100%" height="100%" viewBox="0 0 1280 800" version="1.1" xmlns="http://www.w3.org/2000/svg" xmlns:xlink="http://www.w3.org/1999/xlink" xml:space="preserve" xmlns:serif="http://www.serif.com/" style="fill-rule:evenodd;clip-rule:evenodd;stroke-linejoin:round;stroke-miterlimit:2;">
    <g transform="matrix(1,0,0,1,40.9086,1.25365)">
        <g id="umbrella-open" transform="matrix(26.7964,0,0,21.9048,363.704,593.6)">
            <g transform="matrix(1,0,0,1,-12,-12)">
                <clipPath id="_clip1">
                    <rect x="0" y="0" width="24" height="24"/>
                </clipPath>
                <g clip-path="url(#_clip1)">
                    <g id="Filled_Icon">
                        <path d="M12,2.025L12,0.5C12,0.225 11.776,0 11.5,0C11.224,0 11,0.225 11,0.5L11,2.025C4.273,2.306 -0.287,8.018 0,14.523C0.028,15.158 1.005,15.151 1,14.498C0.986,12.488 4.987,12.483 5.002,14.504C5.006,15.076 5.842,15.205 5.987,14.621C6.523,12.481 10.41,12.457 11,14.576L11,22C11,23.066 11.88,23.625 12.75,23.625C13.62,23.625 14.5,23.066 14.5,22C14.5,21.725 14.276,21.5 14,21.5C13.724,21.5 13.5,21.725 13.5,22C13.5,22.607 12.827,22.625 12.75,22.625C12.673,22.625 12,22.607 12,22L12,14.586C12.58,12.457 16.48,12.478 17.017,14.621C17.159,15.189 17.998,15.087 18.002,14.504C18.017,12.486 22.017,12.485 22.004,14.498C21.999,15.156 22.977,15.148 23.004,14.523C23.291,8.031 18.743,2.305 12,2.025Z" style="fill:rgb(77,77,77);fill-rule:nonzero;"/>
                    </g>
                    <g id="Invisible_Shape">
                        <rect x="0" y="0" width="24" height="24" style="fill:none;"/>
                    </g>
                </g>
            </g>
        </g>
        <g id="standing-19" transform="matrix(1.87558,0,0,1.87558,273.108,1010.13)">
            <g transform="matrix(1,0,0,1,-190,-240)">
                <g transform="matrix(1,0,0,1,28,2)">
                    <g id="humaaans-standing-19" serif:id="humaaans/standing-19">
                        <g id="humaaan-3">
                            <g id="Head-Front-Short-Beard" serif:id="Head/Front/Short-Beard" transform="matrix(0.965926,-0.258819,0.258819,0.965926,47.5256,38.2798)">
                                <g id="Head" transform="matrix(1,0,0,1,58.4941,33.2828)">
                                    <path d="M8.95,37.03C3.958,31.223 0.58,24.106 1.145,16.132C2.771,-6.844 35.041,-1.79 41.318,9.807C47.595,21.403 46.849,50.818 38.736,52.891C35.501,53.718 28.609,51.693 21.594,47.502L25.997,78.376L0,78.376L8.95,37.03Z" style="fill:rgb(178,139,103);"/>
                                </g>
                                <path id="Hair" d="M81.388,51.952C82.383,65.692 85.016,72.561 89.286,72.561C95.69,72.561 101.125,68.531 103.935,68.531C105.984,68.531 105.526,71.072 104.168,72.956C103.048,74.511 97.592,76.009 97.592,78.419C97.592,80.828 101.903,78.964 101.903,80.393C101.903,82.757 102.66,87.202 98.521,87.202C94.331,87.202 82.319,85.689 80.261,79.526C78.932,75.549 78.073,67.307 77.684,54.801C77.43,54.771 77.171,54.756 76.909,54.756C73.319,54.756 70.41,57.64 70.41,61.197C70.41,63.003 71.159,64.636 72.367,65.806C70.864,67.91 69.178,70.107 67.247,72.375C59.992,68.061 54.608,55.431 61.701,43.298C63.662,37.354 68.1,34.18 73.342,32.705C77.589,30.945 81.997,30.746 85.718,31.802C93.012,32.422 99.526,34.626 101.372,35.936C101.372,42.78 100.033,44.811 88.604,44.632C85.796,46.102 83.637,48.634 81.388,51.952Z"/>
                            </g>
                            <g id="Bottom-Standing-Baggy-Pants" serif:id="Bottom/Standing/Baggy-Pants" transform="matrix(1,0,0,1,0,218.436)">
                                <g id="Accessories-Shoe-Flat-Sneaker" serif:id="Accessories/Shoe/Flat-Sneaker">
                                </g>
                                <g id="Accessories-Shoe-Flat-Sneaker1" serif:id="Accessories/Shoe/Flat-Sneaker">
                                </g>
                            </g>
                            <g id="Body-Hoodie" serif:id="Body/Hoodie" transform="matrix(0.984808,-0.173648,0.173648,0.984808,7.2938,131.584)">
                                <g id="Coat-Back" transform="matrix(0.996195,0.0871557,-0.0871557,0.996195,6.75681,-16.1509)">
                                    <path d="M132.973,10.348L142.165,7.939C179.39,34.671 198.612,90.6 243.699,117.174L234.587,130.666C160.173,128.037 135.824,59.896 132.973,10.348Z" style="fill:rgb(252,187,4);"/>
                                </g>
                                <path id="Shirt" d="M97.49,122.879L180.369,122.879C184.156,122.879 183.443,117.438 182.895,114.692C176.577,83.001 151.913,48.841 151.913,3.73L128.007,0C108.233,31.645 101.395,70.607 97.49,122.879Z" style="fill:rgb(229,229,229);"/>
                                <path id="Coat-Front" d="M98.156,31.106C94.684,30.113 91.935,27.796 89.908,24.157C81.17,8.468 84.325,-0.17 93.663,-3.009C103.001,-5.848 111.329,-0 126.206,-0C127.016,-0 127.757,0.05 128.43,0.151L135.914,0.576C157.386,72.989 163.308,121.302 153.679,145.515L88.447,145.515C84.582,154.483 80.884,162.028 77.352,168.15L59.577,168.15C57.904,114.328 70.764,68.647 98.156,31.106Z" style="fill:rgb(252,187,4);"/>
                            </g>
                        </g>
                    </g>
                </g>
            </g>
        </g>
    </g>
    <g transform="matrix(0.947205,0,0,0.945997,17.8533,7.94024)">
        <g transform="matrix(9.35706e-17,-1.52812,1.52812,9.35706e-17,-221.547,1872.46)">
            <text x="990.014px" y="577.615px" style="font-family:'ArchivoNarrow-Regular', 'Archivo Narrow', sans-serif;font-size:96px;">class</text>
        </g>
        <g transform="matrix(9.35706e-17,-1.52812,1.52812,9.35706e-17,306.82,1732.24)">
            <text x="990.014px" y="577.615px" style="font-family:'ArchivoNarrow-Regular', 'Archivo Narrow', sans-serif;font-size:60px;fill:rgb(115,115,115);">learn</text>
        </g>
        <g transform="matrix(1.52812,0,0,1.52812,-322.869,-65.0345)">
            <text x="665.579px" y="275.197px" style="font-family:'ArchivoNarrow-Regular', 'Archivo Narrow', sans-serif;font-size:160px;fill:rgb(252,187,4);">study</text>
        </g>
        <g transform="matrix(1.52812,0,0,1.52812,-324.85,-65.6947)">
            <text x="670.859px" y="159.517px" style="font-family:'ArchivoNarrow-Regular', 'Archivo Narrow', sans-serif;font-size:36px;fill:rgb(77,77,77);">collaborate</text>
        </g>
        <g transform="matrix(1.52812,0,0,1.52812,-325.436,-123.583)">
            <text x="670.859px" y="159.517px" style="font-family:'ArchivoNarrow-Regular', 'Archivo Narrow', sans-serif;font-size:28px;">restate</text>
        </g>
        <g transform="matrix(1.52812,0,0,1.52812,-82.6511,-76.7155)">
            <text x="670.859px" y="159.517px" style="font-family:'ArchivoNarrow-Regular', 'Archivo Narrow', sans-serif;font-size:28px;fill:rgb(252,187,4);">assignment</text>
        </g>
        <g transform="matrix(1.52812,0,0,1.52812,-182.716,-29.0992)">
            <text x="670.859px" y="159.517px" style="font-family:'ArchivoNarrow-Regular', 'Archivo Narrow', sans-serif;font-size:23.558px;fill:rgb(115,115,115);">synthesize</text>
        </g>
        <g transform="matrix(1.52812,0,0,1.52812,-392.077,-79.3073)">
            <text x="794.439px" y="133.057px" style="font-family:'ArchivoNarrow-Regular', 'Archivo Narrow', sans-serif;font-size:60px;fill:rgb(102,102,102);">debate</text>
        </g>
    </g>
</svg>
